<svg width="97" height="20" viewBox="0 0 97 20" fill="none" xmlns="http://www.w3.org/2000/svg">
<path d="M2.60992 13.056H6.87592V15H0.0719219V2.292H2.60992V13.056ZM17.9264 5.028V15H15.3884V12.984C15.1244 13.656 14.6864 14.184 14.0744 14.568C13.4744 14.94 12.7784 15.126 11.9864 15.126C10.8344 15.126 9.91638 14.748 9.23238 13.992C8.54838 13.236 8.20638 12.18 8.20638 10.824V5.028H10.7264V10.536C10.7264 11.328 10.9304 11.946 11.3384 12.39C11.7464 12.822 12.2984 13.038 12.9944 13.038C13.7264 13.038 14.3084 12.804 14.7404 12.336C15.1724 11.868 15.3884 11.196 15.3884 10.32V5.028H17.9264ZM26.3 15L24.032 11.796L22.124 15H19.334L22.628 9.798L19.262 5.028H22.106L24.32 8.178L26.228 5.028H29.018L25.67 10.086L29.144 15H26.3ZM39.8249 9.636C39.8249 9.888 39.7949 10.176 39.7349 10.5H32.4269C32.4629 11.388 32.7029 12.042 33.1469 12.462C33.5909 12.882 34.1429 13.092 34.8029 13.092C35.3909 13.092 35.8769 12.948 36.2609 12.66C36.6569 12.372 36.9089 11.982 37.0169 11.49H39.6989C39.5669 12.186 39.2849 12.81 38.8529 13.362C38.4209 13.914 37.8629 14.346 37.1789 14.658C36.5069 14.97 35.7569 15.126 34.9289 15.126C33.9569 15.126 33.0929 14.922 32.3369 14.514C31.5809 14.094 30.9929 13.5 30.5729 12.732C30.1529 11.964 29.9429 11.058 29.9429 10.014C29.9429 8.97 30.1529 8.064 30.5729 7.296C30.9929 6.516 31.5809 5.922 32.3369 5.514C33.0929 5.106 33.9569 4.902 34.9289 4.902C35.9129 4.902 36.7709 5.106 37.5029 5.514C38.2469 5.922 38.8169 6.486 39.2129 7.206C39.6209 7.914 39.8249 8.724 39.8249 9.636ZM37.2689 9.384C37.3049 8.568 37.0889 7.95 36.6209 7.53C36.1649 7.11 35.6009 6.9 34.9289 6.9C34.2449 6.9 33.6689 7.11 33.2009 7.53C32.7329 7.95 32.4749 8.568 32.4269 9.384H37.2689ZM48.0845 13.056H52.3505V15H45.5465V2.292H48.0845V13.056ZM53.573 2.166C53.573 1.758 53.717 1.428 54.005 1.176C54.293 0.912 54.671 0.78 55.139 0.78C55.607 0.78 55.985 0.912 56.273 1.176C56.561 1.428 56.705 1.758 56.705 2.166C56.705 2.562 56.561 2.892 56.273 3.156C55.985 3.408 55.607 3.534 55.139 3.534C54.671 3.534 54.293 3.408 54.005 3.156C53.717 2.892 53.573 2.562 53.573 2.166ZM56.399 5.028V15H53.861V5.028H56.399ZM63.033 12.462L65.553 5.028H68.253L64.563 15H61.467L57.777 5.028H60.495L63.033 12.462ZM69.3757 2.166C69.3757 1.758 69.5197 1.428 69.8077 1.176C70.0957 0.912 70.4737 0.78 70.9417 0.78C71.4097 0.78 71.7877 0.912 72.0757 1.176C72.3637 1.428 72.5077 1.758 72.5077 2.166C72.5077 2.562 72.3637 2.892 72.0757 3.156C71.7877 3.408 71.4097 3.534 70.9417 3.534C70.4737 3.534 70.0957 3.408 69.8077 3.156C69.5197 2.892 69.3757 2.562 69.3757 2.166ZM72.2017 5.028V15H69.6637V5.028H72.2017ZM80.4377 4.884C81.5897 4.884 82.5077 5.262 83.1917 6.018C83.8757 6.774 84.2177 7.836 84.2177 9.204V15H81.6977V9.492C81.6977 8.7 81.4937 8.088 81.0857 7.656C80.6777 7.212 80.1197 6.99 79.4117 6.99C78.6917 6.99 78.1157 7.224 77.6837 7.692C77.2517 8.16 77.0357 8.832 77.0357 9.708V15H74.4977V5.028H77.0357V7.026C77.2997 6.354 77.7317 5.832 78.3317 5.46C78.9437 5.076 79.6457 4.884 80.4377 4.884ZM90.3568 4.902C91.1968 4.902 91.9168 5.1 92.5168 5.496C93.1168 5.892 93.5428 6.426 93.7948 7.098V5.028H96.3148V15.036C96.3148 15.96 96.1288 16.788 95.7568 17.52C95.3968 18.264 94.8508 18.846 94.1188 19.266C93.3988 19.686 92.5228 19.896 91.4908 19.896C90.0508 19.896 88.8868 19.554 87.9988 18.87C87.1108 18.186 86.5708 17.256 86.3788 16.08H88.8808C89.0248 16.584 89.3008 16.974 89.7088 17.25C90.1288 17.538 90.6628 17.682 91.3108 17.682C92.0548 17.682 92.6548 17.46 93.1108 17.016C93.5668 16.584 93.7948 15.924 93.7948 15.036V12.912C93.5428 13.584 93.1168 14.124 92.5168 14.532C91.9168 14.928 91.1968 15.126 90.3568 15.126C89.5168 15.126 88.7608 14.922 88.0888 14.514C87.4168 14.106 86.8888 13.518 86.5048 12.75C86.1328 11.97 85.9468 11.058 85.9468 10.014C85.9468 8.97 86.1328 8.064 86.5048 7.296C86.8888 6.516 87.4168 5.922 88.0888 5.514C88.7608 5.106 89.5168 4.902 90.3568 4.902ZM91.1488 7.116C90.3568 7.116 89.7208 7.374 89.2408 7.89C88.7608 8.406 88.5208 9.114 88.5208 10.014C88.5208 10.914 88.7608 11.622 89.2408 12.138C89.7208 12.642 90.3568 12.894 91.1488 12.894C91.9168 12.894 92.5468 12.636 93.0388 12.12C93.5428 11.592 93.7948 10.89 93.7948 10.014C93.7948 9.126 93.5428 8.424 93.0388 7.908C92.5468 7.38 91.9168 7.116 91.1488 7.116Z" fill="#55ACEE"/>
</svg>
