<svg width="95" height="33" viewBox="0 0 95 33" fill="none" xmlns="http://www.w3.org/2000/svg">
<path d="M3.99743 32.9717L33.7157 3.90731L38.6432 8.7561L13.8401 33H31.562L47.4979 17.3991L63.4298 32.9717H81.1516L56.3485 8.72781L61.2885 3.90731L91.0067 32.9556H95L61.2885 0L54.3643 6.76809L47.4979 0.0767734L40.6357 6.78426L33.7115 0.0161661L0 32.9717H3.99743ZM74.3349 30.2079H64.6038L49.4987 15.4434L54.3643 10.6916L74.3349 30.2079ZM47.4979 3.98409L52.3676 8.7561L47.4979 13.4917L42.6365 8.7561L47.4979 3.98409ZM45.5013 15.4434L30.3962 30.2079H20.6693L40.6399 10.6916L45.5013 15.4434Z" fill="#55ACEE"/>
</svg>
