<svg width="107" height="25" viewBox="0 0 107 25" fill="none" xmlns="http://www.w3.org/2000/svg">
<path d="M5.53106 7.48019V20.0442H12.1911V18.0462H8.05106V7.48019H5.53106ZM23.2068 10.0722H20.6688V15.5622C20.6688 17.1642 19.8048 18.0282 18.4368 18.0282C17.1048 18.0282 16.2228 17.1642 16.2228 15.5622V10.0722H13.7028V15.9222C13.7028 18.6582 15.3768 20.1702 17.6988 20.1702C18.9408 20.1702 20.0388 19.6302 20.6688 18.7842V20.0442H23.2068V10.0722ZM31.2012 20.0442H34.0452L30.7332 15.0402L34.0092 10.0722H31.3092L29.4732 13.1502L27.4392 10.0722H24.5952L27.8892 15.0402L24.6312 20.0442H27.3312L29.1492 16.9482L31.2012 20.0442ZM39.6979 11.9802C40.9939 11.9802 42.0379 12.8082 42.0739 14.1222H37.3399C37.5379 12.7542 38.4919 11.9802 39.6979 11.9802ZM44.4319 16.9122H41.7139C41.3899 17.5782 40.7959 18.1182 39.7159 18.1182C38.4559 18.1182 37.4479 17.2902 37.3219 15.8142H44.6119C44.6659 15.4902 44.6839 15.1662 44.6839 14.8422C44.6839 11.8722 42.6499 9.91019 39.7699 9.91019C36.8179 9.91019 34.7659 11.9082 34.7659 15.0582C34.7659 18.1902 36.8719 20.2062 39.7699 20.2062C42.2359 20.2062 43.8919 18.7482 44.4319 16.9122ZM50.8123 7.48019V20.0442H57.4723V18.0462H53.3323V7.48019H50.8123ZM59.074 20.0442H61.594V10.0722H59.074V20.0442ZM60.352 8.88419C61.234 8.88419 61.9 8.23619 61.9 7.40819C61.9 6.58019 61.234 5.93219 60.352 5.93219C59.452 5.93219 58.804 6.58019 58.804 7.40819C58.804 8.23619 59.452 8.88419 60.352 8.88419ZM63.0218 10.0722L66.6938 20.0442H69.7538L73.4438 10.0722H70.7618L68.2418 17.7222L65.7218 10.0722H63.0218ZM74.8592 20.0442H77.3792V10.0722H74.8592V20.0442ZM76.1372 8.88419C77.0192 8.88419 77.6852 8.23619 77.6852 7.40819C77.6852 6.58019 77.0192 5.93219 76.1372 5.93219C75.2372 5.93219 74.5892 6.58019 74.5892 7.40819C74.5892 8.23619 75.2372 8.88419 76.1372 8.88419ZM86.853 20.0442H89.373V14.1942C89.373 11.4402 87.717 9.92819 85.395 9.92819C84.117 9.92819 83.037 10.4682 82.389 11.3142V10.0722H79.869V20.0442H82.389V14.5362C82.389 12.9342 83.271 12.0702 84.639 12.0702C85.971 12.0702 86.853 12.9342 86.853 14.5362V20.0442ZM91.1213 15.0222C91.1213 18.1362 93.1373 20.2062 95.6753 20.2062C97.2413 20.2062 98.3753 19.4322 98.9693 18.5682V20.1162C98.9693 21.9702 97.8893 22.7622 96.5033 22.7622C95.2433 22.7622 94.3073 22.1682 94.0553 21.2682H91.5533C91.8053 23.5542 93.7673 24.9582 96.5753 24.9582C99.8513 24.9582 101.507 22.8162 101.507 20.1162V10.0722H98.9693V11.4942C98.3753 10.6302 97.2413 9.91019 95.6753 9.91019C93.1373 9.91019 91.1213 11.9082 91.1213 15.0222ZM98.9693 15.0582C98.9693 16.9482 97.7093 17.9922 96.3233 17.9922C94.9733 17.9922 93.6953 16.9122 93.6953 15.0222C93.6953 13.1322 94.9733 12.1242 96.3233 12.1242C97.7093 12.1242 98.9693 13.1682 98.9693 15.0582Z" fill="#55ACEE"/>
</svg>
