<svg width="40" height="54" viewBox="0 0 40 54" fill="none" xmlns="http://www.w3.org/2000/svg">
<path d="M27.3207 0.947442C26.9316 0.471305 26.349 0.195129 25.7341 0.195129H14.2657C13.6508 0.195129 13.0684 0.471305 12.6794 0.947442C9.78247 4.49197 5.95261 7.12124 1.60401 8.55074C0.763325 8.82705 0.195129 9.61201 0.195129 10.4971V24.4735C0.195129 37.0205 7.65938 48.2403 19.2115 53.0572C19.4639 53.1624 19.732 53.215 20 53.215C20.268 53.215 20.5362 53.1624 20.7885 53.0572C32.3406 48.2403 39.8049 37.0205 39.8049 24.4735V10.4984C39.8049 9.61351 39.2368 8.82855 38.3961 8.5521C34.0474 7.12206 30.2175 4.49252 27.3207 0.947442ZM35.7073 24.4735C35.7073 35.073 29.5704 44.5803 20 48.9318C10.4296 44.5805 4.29269 35.0732 4.29269 24.4735V11.9385C8.49733 10.3044 12.2361 7.68875 15.2151 4.29269H24.7847C27.7639 7.68916 31.5023 10.3052 35.7073 11.9396V24.4735Z" fill="#55ACEE"/>
</svg>
