<svg width="29" height="26" viewBox="0 0 29 26" fill="none" xmlns="http://www.w3.org/2000/svg">
<path d="M27.5604 6.52874L15.0604 0.278747C14.7087 0.102966 14.2946 0.102966 13.9429 0.278747L1.44293 6.52874C1.01918 6.74046 0.751522 7.17374 0.751679 7.64749V23.8975C0.751679 24.5878 1.31137 25.1475 2.00168 25.1475H27.0017C27.692 25.1475 28.2517 24.5878 28.2517 23.8975V7.64749C28.2518 7.17374 27.9842 6.74062 27.5604 6.52874ZM17.0017 22.6475H12.0017V16.3975H17.0017V22.6475ZM25.7517 22.6475H19.5017V15.1475C19.5017 14.4572 18.942 13.8975 18.2517 13.8975H10.7517C10.0614 13.8975 9.50167 14.4572 9.50167 15.1475V22.6475H3.25168V8.41999L14.5017 2.795L25.7517 8.41999V22.6475Z" fill="#55ACEE"/>
</svg>
