<svg width="36" height="45" viewBox="0 0 36 45" fill="none" xmlns="http://www.w3.org/2000/svg">
<path d="M33.9542 29.2962L32.7229 26.425C30.8929 22.1248 27.9545 18.3872 24.2079 15.5937L22.5579 14.3675C21.209 13.3531 19.3132 13.5147 18.1554 14.7425C17.0954 15.8614 16.8778 17.5361 17.6167 18.8887L19.3767 22.0787L11.6104 17.2412L6.36045 3.06622C5.76638 1.38169 3.92404 0.492317 2.23545 1.07497C0.589511 1.67013 -0.331738 3.42153 0.110449 5.11497L3.80045 19.49C4.30263 21.4426 5.2581 23.2493 6.58919 24.7637L17.2204 36.8062C17.6412 37.2875 17.8718 37.9057 17.8692 38.5449V43.3974C17.8692 44.0878 18.4289 44.6474 19.1192 44.6474H33.7517C34.442 44.6474 35.0017 44.0878 35.0017 43.3974V34.4212C35.0056 32.6593 34.6492 30.9153 33.9542 29.2962ZM32.5017 42.1474H20.3692V38.5449C20.3722 37.2957 19.9187 36.0884 19.0942 35.15L8.46294 23.1087C7.39154 21.8886 6.62388 20.4323 6.22294 18.8587L2.5317 4.49247C2.40732 4.06013 2.63107 3.60372 3.0492 3.43747C3.45295 3.31153 3.88263 3.53481 4.0117 3.93747L9.41044 18.5125C9.50732 18.7718 9.68763 18.9917 9.92294 19.1375L22.1167 26.7337C22.7006 27.1021 23.4725 26.9275 23.8409 26.3436C24.0845 25.9575 24.0982 25.4692 23.8767 25.07L19.8104 17.6825C19.5932 17.2909 19.6539 16.8039 19.9604 16.4775C20.249 16.1607 20.7318 16.1168 21.0729 16.3762L22.7229 17.6012C26.1139 20.1312 28.7731 23.5154 30.4292 27.4087L31.6604 30.2837C32.2192 31.5914 32.5054 32.9992 32.5017 34.4212V42.1474Z" fill="#55ACEE"/>
</svg>
