<svg width="107" height="61" viewBox="0 0 107 61" fill="none" xmlns="http://www.w3.org/2000/svg">
<path d="M7.99743 32.9717L37.7157 3.90731L42.6432 8.7561L17.8401 33H35.562L51.4979 17.3991L67.4298 32.9717H85.1516L60.3485 8.72781L65.2885 3.90731L95.0067 32.9556H99L65.2885 0L58.3643 6.76809L51.4979 0.0767734L44.6357 6.78426L37.7115 0.0161661L4 32.9717H7.99743ZM78.3349 30.2079H68.6038L53.4987 15.4434L58.3643 10.6916L78.3349 30.2079ZM51.4979 3.98409L56.3676 8.7561L51.4979 13.4917L46.6365 8.7561L51.4979 3.98409ZM49.5013 15.4434L34.3962 30.2079H24.6693L44.6399 10.6916L49.5013 15.4434Z" fill="#55ACEE"/>
<path d="M7.60992 51.056H11.8759V53H5.07192V40.292H7.60992V51.056ZM22.9264 43.028V53H20.3884V50.984C20.1244 51.656 19.6864 52.184 19.0744 52.568C18.4744 52.94 17.7784 53.126 16.9864 53.126C15.8344 53.126 14.9164 52.748 14.2324 51.992C13.5484 51.236 13.2064 50.18 13.2064 48.824V43.028H15.7264V48.536C15.7264 49.328 15.9304 49.946 16.3384 50.39C16.7464 50.822 17.2984 51.038 17.9944 51.038C18.7264 51.038 19.3084 50.804 19.7404 50.336C20.1724 49.868 20.3884 49.196 20.3884 48.32V43.028H22.9264ZM31.3 53L29.032 49.796L27.124 53H24.334L27.628 47.798L24.262 43.028H27.106L29.32 46.178L31.228 43.028H34.018L30.67 48.086L34.144 53H31.3ZM44.8249 47.636C44.8249 47.888 44.7949 48.176 44.7349 48.5H37.4269C37.4629 49.388 37.7029 50.042 38.1469 50.462C38.5909 50.882 39.1429 51.092 39.8029 51.092C40.3909 51.092 40.8769 50.948 41.2609 50.66C41.6569 50.372 41.9089 49.982 42.0169 49.49H44.6989C44.5669 50.186 44.2849 50.81 43.8529 51.362C43.4209 51.914 42.8629 52.346 42.1789 52.658C41.5069 52.97 40.7569 53.126 39.9289 53.126C38.9569 53.126 38.0929 52.922 37.3369 52.514C36.5809 52.094 35.9929 51.5 35.5729 50.732C35.1529 49.964 34.9429 49.058 34.9429 48.014C34.9429 46.97 35.1529 46.064 35.5729 45.296C35.9929 44.516 36.5809 43.922 37.3369 43.514C38.0929 43.106 38.9569 42.902 39.9289 42.902C40.9129 42.902 41.7709 43.106 42.5029 43.514C43.2469 43.922 43.8169 44.486 44.2129 45.206C44.6209 45.914 44.8249 46.724 44.8249 47.636ZM42.2689 47.384C42.3049 46.568 42.0889 45.95 41.6209 45.53C41.1649 45.11 40.6009 44.9 39.9289 44.9C39.2449 44.9 38.6689 45.11 38.2009 45.53C37.7329 45.95 37.4749 46.568 37.4269 47.384H42.2689ZM53.0845 51.056H57.3505V53H50.5465V40.292H53.0845V51.056ZM58.573 40.166C58.573 39.758 58.717 39.428 59.005 39.176C59.293 38.912 59.671 38.78 60.139 38.78C60.607 38.78 60.985 38.912 61.273 39.176C61.561 39.428 61.705 39.758 61.705 40.166C61.705 40.562 61.561 40.892 61.273 41.156C60.985 41.408 60.607 41.534 60.139 41.534C59.671 41.534 59.293 41.408 59.005 41.156C58.717 40.892 58.573 40.562 58.573 40.166ZM61.399 43.028V53H58.861V43.028H61.399ZM68.033 50.462L70.553 43.028H73.253L69.563 53H66.467L62.777 43.028H65.495L68.033 50.462ZM74.3757 40.166C74.3757 39.758 74.5197 39.428 74.8077 39.176C75.0957 38.912 75.4737 38.78 75.9417 38.78C76.4097 38.78 76.7877 38.912 77.0757 39.176C77.3637 39.428 77.5077 39.758 77.5077 40.166C77.5077 40.562 77.3637 40.892 77.0757 41.156C76.7877 41.408 76.4097 41.534 75.9417 41.534C75.4737 41.534 75.0957 41.408 74.8077 41.156C74.5197 40.892 74.3757 40.562 74.3757 40.166ZM77.2017 43.028V53H74.6637V43.028H77.2017ZM85.4377 42.884C86.5897 42.884 87.5077 43.262 88.1917 44.018C88.8757 44.774 89.2177 45.836 89.2177 47.204V53H86.6977V47.492C86.6977 46.7 86.4937 46.088 86.0857 45.656C85.6777 45.212 85.1197 44.99 84.4117 44.99C83.6917 44.99 83.1157 45.224 82.6837 45.692C82.2517 46.16 82.0357 46.832 82.0357 47.708V53H79.4977V43.028H82.0357V45.026C82.2997 44.354 82.7317 43.832 83.3317 43.46C83.9437 43.076 84.6457 42.884 85.4377 42.884ZM95.3568 42.902C96.1968 42.902 96.9168 43.1 97.5168 43.496C98.1168 43.892 98.5428 44.426 98.7948 45.098V43.028H101.315V53.036C101.315 53.96 101.129 54.788 100.757 55.52C100.397 56.264 99.8508 56.846 99.1188 57.266C98.3988 57.686 97.5228 57.896 96.4908 57.896C95.0508 57.896 93.8868 57.554 92.9988 56.87C92.1108 56.186 91.5708 55.256 91.3788 54.08H93.8808C94.0248 54.584 94.3008 54.974 94.7088 55.25C95.1288 55.538 95.6628 55.682 96.3108 55.682C97.0548 55.682 97.6548 55.46 98.1108 55.016C98.5668 54.584 98.7948 53.924 98.7948 53.036V50.912C98.5428 51.584 98.1168 52.124 97.5168 52.532C96.9168 52.928 96.1968 53.126 95.3568 53.126C94.5168 53.126 93.7608 52.922 93.0888 52.514C92.4168 52.106 91.8888 51.518 91.5048 50.75C91.1328 49.97 90.9468 49.058 90.9468 48.014C90.9468 46.97 91.1328 46.064 91.5048 45.296C91.8888 44.516 92.4168 43.922 93.0888 43.514C93.7608 43.106 94.5168 42.902 95.3568 42.902ZM96.1488 45.116C95.3568 45.116 94.7208 45.374 94.2408 45.89C93.7608 46.406 93.5208 47.114 93.5208 48.014C93.5208 48.914 93.7608 49.622 94.2408 50.138C94.7208 50.642 95.3568 50.894 96.1488 50.894C96.9168 50.894 97.5468 50.636 98.0388 50.12C98.5428 49.592 98.7948 48.89 98.7948 48.014C98.7948 47.126 98.5428 46.424 98.0388 45.908C97.5468 45.38 96.9168 45.116 96.1488 45.116Z" fill="#55ACEE"/>
</svg>
