<svg width="36" height="45" viewBox="0 0 36 45" fill="none" xmlns="http://www.w3.org/2000/svg">
<path d="M33.7691 1.07497C32.0805 0.492317 30.2384 1.38169 29.6441 3.06622L24.3941 17.2412L16.6266 22.0787L18.3829 18.8887C19.122 17.5367 18.9048 15.8625 17.8454 14.7437C16.6867 13.5154 14.7901 13.354 13.4404 14.3687L11.7917 15.5925C8.04525 18.3867 5.10713 22.1246 3.27666 26.425L2.04541 29.3C1.35041 30.919 0.994005 32.6631 0.997911 34.425V43.3974C0.997911 44.0878 1.5576 44.6474 2.24791 44.6474H16.8842C17.5745 44.6474 18.1341 44.0878 18.1341 43.3974V38.5449C18.1312 37.9054 18.3623 37.287 18.7841 36.8062L29.4091 24.7637C30.7423 23.2481 31.6982 21.439 32.1991 19.4837L35.8891 5.11497C36.3318 3.42294 35.413 1.67216 33.7691 1.07497ZM33.4716 4.49247L29.7804 18.8675C29.3793 20.4412 28.6113 21.8976 27.5391 23.1175L16.9142 35.1587C16.0882 36.0964 15.6343 37.3042 15.6379 38.5537V42.1474H3.50166V34.4212C3.49931 32.9998 3.78697 31.5928 4.34666 30.2862L5.57791 27.4112C7.23431 23.5179 9.89337 20.1332 13.2842 17.6025L14.9329 16.38C15.2748 16.1203 15.7584 16.1642 16.0479 16.4812C16.3538 16.8075 16.414 17.294 16.1967 17.685L12.1267 25.07C11.7937 25.6746 12.0138 26.4348 12.6185 26.7679C13.0151 26.9864 13.4987 26.9732 13.8829 26.7337L26.0766 19.1375C26.312 18.9917 26.4923 18.7718 26.5891 18.5125L31.9879 3.93747C32.118 3.53638 32.546 3.31388 32.9491 3.43747C33.3691 3.60185 33.5954 4.05872 33.4716 4.49247Z" fill="#55ACEE"/>
</svg>
