<svg width="56" height="70" viewBox="0 0 56 70" fill="none" xmlns="http://www.w3.org/2000/svg">
<path d="M53.9389 9.56098C48.0337 9.56098 42.6536 6.31625 39.8985 1.09296C39.5441 0.420683 38.8464 0 38.0864 0H17.9136C17.1536 0 16.4559 0.420683 16.1014 1.09296C13.3464 6.31625 7.96634 9.56098 2.04878 9.56098C0.917307 9.56098 0 10.4783 0 11.6098V32.4733C0 40.8607 2.62066 48.8698 7.57858 55.6349C12.5368 62.4 19.3849 67.3108 27.383 69.8365C27.5838 69.8999 27.7918 69.9316 28 69.9316C28.2082 69.9316 28.4162 69.8999 28.617 69.8365C36.6151 67.3108 43.4632 62.4 48.4214 55.6349C53.3793 48.8698 56 40.8607 56 32.4733V11.6098C56 10.4783 55.0704 9.56098 53.9389 9.56098ZM51.9024 32.4733C51.9024 47.6362 42.3243 60.9186 28 65.7283C13.6757 60.9186 4.09756 47.6362 4.09756 32.4733V13.5557C10.2983 12.9263 15.8436 9.44652 19.1053 4.09756H36.8948C40.1547 9.44379 45.6968 12.9228 51.9024 13.5547V32.4733Z" fill="#55ACEE"/>
</svg>
