<svg width="76" height="62" viewBox="0 0 76 62" fill="none" xmlns="http://www.w3.org/2000/svg">
<path d="M49.052 21.9731C52.9118 18.3175 55.3719 14.9202 55.3719 10.54C55.3719 4.80205 51.2939 0 45.4962 0C42.657 0 39.9941 1.2614 37.7905 3.60604C35.5867 1.26155 32.9238 0 30.0848 0C24.2795 0 20.2092 4.81031 20.2092 10.54C20.2092 14.92 22.6693 18.3175 26.5291 21.9731C25.5527 27.1113 20.8993 31 15.5 31H8.85714C3.97331 31 0 34.9733 0 39.8571V62H17.7143V44.1855C25.9994 43.4332 33.3796 38.5008 37.2185 31.2216L37.7905 31.7183L38.3625 31.2216C42.2013 38.5008 49.5816 43.4332 57.8667 44.1855V62H75.581V39.8571C75.581 34.9733 71.6076 31 66.7238 31H60.081C54.6816 31 50.0282 27.1113 49.052 21.9731ZM24.6376 10.54C24.6376 7.50303 26.5087 4.42857 30.0846 4.42857C32.8165 4.42857 34.7671 6.59237 35.9224 8.40764L37.7905 11.3428L39.6584 8.4075C40.8136 6.59237 42.7641 4.42857 45.496 4.42857C49.0723 4.42857 50.9432 7.50303 50.9432 10.54C50.9432 14.7585 47.0056 18.0798 40.4822 23.5824C39.6096 24.3185 38.7174 25.0709 37.7905 25.8634C36.8636 25.071 35.9714 24.3185 35.0988 23.5824C28.5752 18.0799 24.6376 14.7585 24.6376 10.54ZM15.5 39.8571H13.2857V57.5714H4.42857V39.8571C4.42857 37.4152 6.41523 35.4286 8.85714 35.4286H15.5C22.2577 35.4286 28.0241 31.1241 30.202 25.239C31.3193 26.1923 32.5178 27.1963 33.7555 28.2451C30.5174 35.2489 23.3656 39.8571 15.5 39.8571ZM71.1524 39.8571V57.5714H62.2952V39.8571H60.081C52.2154 39.8571 45.0635 35.2489 41.8254 28.2451C43.0615 27.1978 44.2506 26.2018 45.3788 25.239C47.5581 31.1278 53.3272 35.4286 60.081 35.4286H66.7238C69.1657 35.4286 71.1524 37.4152 71.1524 39.8571Z" fill="#55ACEE"/>
</svg>
