<svg width="95" height="29" viewBox="0 0 95 29" fill="none" xmlns="http://www.w3.org/2000/svg">
<path d="M3.99743 28.02L33.7157 3.32052L38.6432 7.44111L13.8401 28.0441H31.562L47.4979 14.7861L63.4298 28.02H81.1516L56.3485 7.41707L61.2885 3.32052L91.0067 28.0063H95L61.2885 0L54.3643 5.75166L47.4979 0.0652436L40.6357 5.7654L33.7115 0.0137382L0 28.02H3.99743ZM74.3349 25.6713H64.6038L49.4987 13.1241L54.3643 9.08592L74.3349 25.6713ZM47.4979 3.38576L52.3676 7.44111L47.4979 11.4656L42.6365 7.44111L47.4979 3.38576ZM45.5013 13.1241L30.3962 25.6713H20.6693L40.6399 9.08592L45.5013 13.1241Z" fill="#55ACEE"/>
</svg>
