<svg width="230" height="82" viewBox="0 0 230 82" fill="none" xmlns="http://www.w3.org/2000/svg">
<path d="M9.81012 81.6L81.7001 9.67001L93.6201 21.67L33.6201 81.67H76.4901L115.04 43.06L153.58 81.6H196.45L136.45 21.6L148.4 9.67001L220.29 81.56H229.95L148.4 0L131.65 16.75L115.04 0.190002L98.4401 16.79L81.6901 0.0400085L0.140137 81.6H9.81012ZM179.96 74.76H156.42L119.88 38.22L131.65 26.46L179.96 74.76ZM115.04 9.86002L126.82 21.67L115.04 33.39L103.28 21.67L115.04 9.86002ZM110.21 38.22L73.6701 74.76H50.1401L98.4501 26.46L110.21 38.22Z" fill="#113621"/>
</svg>
