<svg width="20" height="26" viewBox="0 0 20 26" fill="none" xmlns="http://www.w3.org/2000/svg">
<path d="M18.8134 10.8182C18.8134 18.4545 9.90672 25 9.90672 25C9.90672 25 1 18.4545 1 10.8182C1 8.21424 1.93838 5.71695 3.60872 3.87568C5.27905 2.03441 7.54451 1 9.90672 1C12.2689 1 14.5344 2.03441 16.2047 3.87568C17.8751 5.71695 18.8134 8.21424 18.8134 10.8182Z" stroke="#6F6E6E" stroke-opacity="0.7" stroke-width="2" stroke-linecap="round" stroke-linejoin="round"/>
<path d="M9.90662 14.0909C11.5463 14.0909 12.8755 12.6256 12.8755 10.8181C12.8755 9.01066 11.5463 7.54541 9.90662 7.54541C8.26694 7.54541 6.93771 9.01066 6.93771 10.8181C6.93771 12.6256 8.26694 14.0909 9.90662 14.0909Z" stroke="#6F6E6E" stroke-opacity="0.7" stroke-width="2" stroke-linecap="round" stroke-linejoin="round"/>
</svg>
