<svg width="75" height="68" viewBox="0 0 75 68" fill="none" xmlns="http://www.w3.org/2000/svg">
<path d="M50.5604 16.5287L38.0604 10.2787C37.7087 10.103 37.2946 10.103 36.9429 10.2787L24.4429 16.5287C24.0192 16.7405 23.7515 17.1737 23.7517 17.6475V33.8975C23.7517 34.5878 24.3114 35.1475 25.0017 35.1475H50.0017C50.692 35.1475 51.2517 34.5878 51.2517 33.8975V17.6475C51.2518 17.1737 50.9842 16.7406 50.5604 16.5287ZM40.0017 32.6475H35.0017V26.3975H40.0017V32.6475ZM48.7517 32.6475H42.5017V25.1475C42.5017 24.4572 41.942 23.8975 41.2517 23.8975H33.7517C33.0614 23.8975 32.5017 24.4572 32.5017 25.1475V32.6475H26.2517V18.42L37.5017 12.795L48.7517 18.42V32.6475Z" fill="#55ACEE"/>
<path d="M33.9542 52.2962L32.7229 49.425C30.8929 45.1248 27.9545 41.3872 24.2079 38.5937L22.5579 37.3675C21.209 36.3531 19.3132 36.5147 18.1554 37.7425C17.0954 38.8614 16.8778 40.5361 17.6167 41.8887L19.3767 45.0787L11.6104 40.2412L6.36045 26.0662C5.76638 24.3817 3.92404 23.4923 2.23545 24.075C0.589511 24.6701 -0.331738 26.4215 0.110449 28.115L3.80045 42.49C4.30263 44.4426 5.2581 46.2493 6.58919 47.7637L17.2204 59.8062C17.6412 60.2875 17.8718 60.9057 17.8692 61.5449V66.3974C17.8692 67.0878 18.4289 67.6474 19.1192 67.6474H33.7517C34.442 67.6474 35.0017 67.0878 35.0017 66.3974V57.4212C35.0056 55.6593 34.6492 53.9153 33.9542 52.2962ZM32.5017 65.1474H20.3692V61.5449C20.3722 60.2957 19.9187 59.0884 19.0942 58.15L8.46294 46.1087C7.39154 44.8886 6.62388 43.4323 6.22294 41.8587L2.5317 27.4925C2.40732 27.0601 2.63107 26.6037 3.0492 26.4375C3.45295 26.3115 3.88263 26.5348 4.0117 26.9375L9.41044 41.5125C9.50732 41.7718 9.68763 41.9917 9.92294 42.1375L22.1167 49.7337C22.7006 50.1021 23.4725 49.9275 23.8409 49.3436C24.0845 48.9575 24.0982 48.4692 23.8767 48.07L19.8104 40.6825C19.5932 40.2909 19.6539 39.8039 19.9604 39.4775C20.249 39.1607 20.7318 39.1168 21.0729 39.3762L22.7229 40.6012C26.1139 43.1312 28.7731 46.5154 30.4292 50.4087L31.6604 53.2837C32.2192 54.5914 32.5054 55.9992 32.5017 57.4212V65.1474Z" fill="#55ACEE"/>
<path d="M72.7691 24.075C71.0805 23.4923 69.2384 24.3817 68.6441 26.0662L63.3941 40.2412L55.6266 45.0787L57.3829 41.8887C58.122 40.5367 57.9048 38.8625 56.8454 37.7437C55.6867 36.5154 53.7901 36.354 52.4404 37.3687L50.7917 38.5925C47.0452 41.3867 44.1071 45.1246 42.2767 49.425L41.0454 52.3C40.3504 53.919 39.994 55.6631 39.9979 57.425V66.3974C39.9979 67.0878 40.5576 67.6474 41.2479 67.6474H55.8842C56.5745 67.6474 57.1341 67.0878 57.1341 66.3974V61.5449C57.1312 60.9054 57.3623 60.287 57.7841 59.8062L68.4091 47.7637C69.7423 46.2481 70.6982 44.439 71.1991 42.4837L74.8891 28.115C75.3318 26.4229 74.413 24.6722 72.7691 24.075ZM72.4716 27.4925L68.7804 41.8675C68.3793 43.4412 67.6113 44.8976 66.5391 46.1175L55.9142 58.1587C55.0882 59.0964 54.6343 60.3042 54.6379 61.5537V65.1474H42.5017V57.4212C42.4993 55.9998 42.787 54.5928 43.3467 53.2862L44.5779 50.4112C46.2343 46.5179 48.8934 43.1332 52.2842 40.6025L53.9329 39.38C54.2748 39.1203 54.7584 39.1642 55.0479 39.4812C55.3538 39.8075 55.414 40.294 55.1967 40.685L51.1267 48.07C50.7937 48.6746 51.0138 49.4348 51.6185 49.7679C52.0151 49.9864 52.4987 49.9732 52.8829 49.7337L65.0766 42.1375C65.312 41.9917 65.4923 41.7718 65.5891 41.5125L70.9879 26.9375C71.118 26.5364 71.546 26.3139 71.9491 26.4375C72.3691 26.6018 72.5954 27.0587 72.4716 27.4925Z" fill="#55ACEE"/>
<path d="M37.5017 0L15.6767 10.9125L19.5729 16.7587L37.5017 7.79499L55.4304 16.7587L59.3267 10.9125L37.5017 0ZM54.5729 13.5362L37.5017 5L20.4304 13.5362L19.3267 11.8825L37.5017 2.795L55.6767 11.8825L54.5729 13.5362Z" fill="#55ACEE"/>
</svg>
