<svg width="269" height="347" viewBox="0 0 269 347" fill="none" xmlns="http://www.w3.org/2000/svg">
<path d="M39.9445 324.072C39.5332 327.592 38.2307 330.311 36.0369 332.23C33.8584 334.135 30.9562 335.087 27.3305 335.087C23.4 335.087 20.2465 333.678 17.8699 330.859C15.5086 328.041 14.3279 324.271 14.3279 319.548V316.349C14.3279 313.256 14.8764 310.537 15.9732 308.191C17.0854 305.845 18.6545 304.047 20.6807 302.798C22.7068 301.533 25.0529 300.901 27.7189 300.901C31.2533 300.901 34.0869 301.891 36.2197 303.872C38.3525 305.837 39.5941 308.564 39.9445 312.053H35.5342C35.1533 309.402 34.323 307.482 33.0434 306.294C31.7789 305.106 30.0041 304.512 27.7189 304.512C24.9158 304.512 22.7145 305.547 21.1148 307.619C19.5305 309.691 18.7383 312.639 18.7383 316.463V319.685C18.7383 323.296 19.4924 326.167 21.0006 328.3C22.5088 330.433 24.6187 331.499 27.3305 331.499C29.768 331.499 31.6342 330.951 32.9291 329.854C34.2393 328.742 35.1076 326.815 35.5342 324.072H39.9445ZM60.5566 334.63C60.3129 334.142 60.1148 333.274 59.9625 332.025C57.9973 334.066 55.6512 335.087 52.9242 335.087C50.4867 335.087 48.4834 334.401 46.9143 333.03C45.3604 331.644 44.5834 329.892 44.5834 327.774C44.5834 325.2 45.5584 323.204 47.5084 321.787C49.4736 320.355 52.2311 319.639 55.7807 319.639H59.8939V317.697C59.8939 316.219 59.4521 315.046 58.5686 314.178C57.685 313.294 56.3824 312.852 54.6609 312.852C53.1527 312.852 51.8883 313.233 50.8676 313.995C49.8469 314.757 49.3365 315.678 49.3365 316.76H45.0861C45.0861 315.526 45.5203 314.338 46.3887 313.195C47.2723 312.037 48.4605 311.123 49.9535 310.453C51.4617 309.783 53.1146 309.447 54.9123 309.447C57.7611 309.447 59.993 310.163 61.6078 311.596C63.2227 313.012 64.0605 314.97 64.1215 317.468V328.848C64.1215 331.118 64.4109 332.924 64.9898 334.264V334.63H60.5566ZM53.5412 331.408C54.8666 331.408 56.1234 331.065 57.3117 330.379C58.5 329.694 59.3607 328.803 59.8939 327.706V322.633H56.5805C51.4008 322.633 48.8109 324.149 48.8109 327.18C48.8109 328.506 49.2527 329.542 50.1363 330.288C51.0199 331.035 52.1549 331.408 53.5412 331.408ZM75.3416 334.63H71.1141V299.53H75.3416V334.63ZM86.7217 334.63H82.4941V299.53H86.7217V334.63ZM98.1018 334.63H93.8742V309.904H98.1018V334.63ZM93.5314 303.346C93.5314 302.661 93.7371 302.082 94.1484 301.609C94.575 301.137 95.1996 300.901 96.0223 300.901C96.8449 300.901 97.4695 301.137 97.8961 301.609C98.3227 302.082 98.5359 302.661 98.5359 303.346C98.5359 304.032 98.3227 304.603 97.8961 305.06C97.4695 305.517 96.8449 305.746 96.0223 305.746C95.1996 305.746 94.575 305.517 94.1484 305.06C93.7371 304.603 93.5314 304.032 93.5314 303.346ZM119.285 328.071C119.285 326.929 118.851 326.045 117.983 325.421C117.129 324.781 115.629 324.232 113.481 323.775C111.348 323.318 109.649 322.77 108.385 322.13C107.136 321.49 106.206 320.729 105.597 319.845C105.003 318.961 104.706 317.91 104.706 316.691C104.706 314.665 105.559 312.951 107.265 311.55C108.987 310.148 111.18 309.447 113.846 309.447C116.65 309.447 118.92 310.171 120.656 311.618C122.408 313.066 123.284 314.917 123.284 317.171H119.034C119.034 316.013 118.539 315.016 117.548 314.178C116.573 313.34 115.339 312.921 113.846 312.921C112.308 312.921 111.104 313.256 110.236 313.926C109.368 314.597 108.933 315.473 108.933 316.554C108.933 317.575 109.337 318.344 110.145 318.862C110.952 319.38 112.407 319.875 114.509 320.348C116.627 320.82 118.341 321.384 119.651 322.039C120.961 322.694 121.928 323.486 122.553 324.415C123.193 325.329 123.513 326.449 123.513 327.774C123.513 329.983 122.629 331.758 120.862 333.099C119.095 334.424 116.802 335.087 113.984 335.087C112.003 335.087 110.251 334.737 108.728 334.036C107.204 333.335 106.008 332.36 105.14 331.111C104.287 329.846 103.86 328.483 103.86 327.02H108.088C108.164 328.437 108.728 329.564 109.779 330.402C110.845 331.225 112.247 331.636 113.984 331.636C115.583 331.636 116.863 331.316 117.823 330.677C118.798 330.021 119.285 329.153 119.285 328.071ZM166.862 334.63H162.452V319.251H145.679V334.63H141.291V301.358H145.679V315.663H162.452V301.358H166.862V334.63ZM189.257 334.63C189.013 334.142 188.815 333.274 188.662 332.025C186.697 334.066 184.351 335.087 181.624 335.087C179.187 335.087 177.183 334.401 175.614 333.03C174.06 331.644 173.283 329.892 173.283 327.774C173.283 325.2 174.258 323.204 176.208 321.787C178.174 320.355 180.931 319.639 184.481 319.639H188.594V317.697C188.594 316.219 188.152 315.046 187.269 314.178C186.385 313.294 185.082 312.852 183.361 312.852C181.853 312.852 180.588 313.233 179.568 313.995C178.547 314.757 178.037 315.678 178.037 316.76H173.786C173.786 315.526 174.22 314.338 175.089 313.195C175.972 312.037 177.161 311.123 178.654 310.453C180.162 309.783 181.815 309.447 183.612 309.447C186.461 309.447 188.693 310.163 190.308 311.596C191.923 313.012 192.761 314.97 192.821 317.468V328.848C192.821 331.118 193.111 332.924 193.69 334.264V334.63H189.257ZM182.241 331.408C183.567 331.408 184.823 331.065 186.012 330.379C187.2 329.694 188.061 328.803 188.594 327.706V322.633H185.28C180.101 322.633 177.511 324.149 177.511 327.18C177.511 328.506 177.953 329.542 178.836 330.288C179.72 331.035 180.855 331.408 182.241 331.408ZM207.241 328.894L213.365 309.904H217.684L208.818 334.63H205.596L196.638 309.904H200.957L207.241 328.894ZM231.692 335.087C228.34 335.087 225.613 333.99 223.511 331.796C221.409 329.587 220.358 326.639 220.358 322.953V322.176C220.358 319.723 220.822 317.537 221.752 315.617C222.696 313.683 224.006 312.174 225.682 311.093C227.373 309.996 229.201 309.447 231.166 309.447C234.381 309.447 236.879 310.506 238.662 312.624C240.444 314.741 241.335 317.773 241.335 321.719V323.478H224.585C224.646 325.916 225.354 327.889 226.71 329.397C228.081 330.89 229.818 331.636 231.921 331.636C233.413 331.636 234.678 331.332 235.714 330.722C236.75 330.113 237.656 329.305 238.433 328.3L241.015 330.311C238.944 333.495 235.836 335.087 231.692 335.087ZM231.166 312.921C229.46 312.921 228.028 313.546 226.87 314.795C225.712 316.029 224.996 317.765 224.722 320.005H237.108V319.685C236.986 317.537 236.407 315.876 235.371 314.703C234.335 313.515 232.934 312.921 231.166 312.921ZM250.247 309.904L250.385 313.012C252.274 310.636 254.742 309.447 257.788 309.447C263.014 309.447 265.649 312.395 265.695 318.291V334.63H261.468V318.268C261.452 316.486 261.041 315.168 260.234 314.315C259.441 313.462 258.2 313.035 256.509 313.035C255.138 313.035 253.934 313.401 252.898 314.132C251.862 314.863 251.055 315.823 250.476 317.011V334.63H246.248V309.904H250.247Z" fill="black"/>
<path d="M63.9102 164.93V265.45" stroke="#113621" stroke-width="3" stroke-miterlimit="10"/>
<path d="M75.79 164.93V265.45" stroke="#113621" stroke-width="3" stroke-miterlimit="10"/>
<path d="M87.6699 106.18V265.45" stroke="#113621" stroke-width="3" stroke-miterlimit="10"/>
<path d="M99.5498 106.18V265.45" stroke="#113621" stroke-width="3" stroke-miterlimit="10"/>
<path d="M111.43 31.8501V265.45" stroke="#113621" stroke-width="3" stroke-miterlimit="10"/>
<path d="M123.3 0V265.45" stroke="#113621" stroke-width="3" stroke-miterlimit="10"/>
<path d="M135.18 31.8501V265.45" stroke="#113621" stroke-width="3" stroke-miterlimit="10"/>
<path d="M147.06 106.18V265.45" stroke="#113621" stroke-width="3" stroke-miterlimit="10"/>
<path d="M158.94 106.18V265.45" stroke="#113621" stroke-width="3" stroke-miterlimit="10"/>
<path d="M170.82 164.93V265.45" stroke="#113621" stroke-width="3" stroke-miterlimit="10"/>
<path d="M182.7 164.93V265.45" stroke="#113621" stroke-width="3" stroke-miterlimit="10"/>
<path d="M143.67 66.3C165.288 70.3612 185.278 80.5653 201.247 95.6912C217.217 110.817 228.49 130.224 233.718 151.59C238.945 172.956 237.906 195.375 230.723 216.166C223.541 236.956 210.521 255.237 193.22 268.82" stroke="#113621" stroke-width="3" stroke-miterlimit="10"/>
<path d="M54.2598 270.59C36.3247 257.241 22.6923 238.931 15.0461 217.921C7.39985 196.911 6.07474 174.122 11.2344 152.368C16.394 130.613 27.8125 110.847 44.0796 95.5085C60.3467 80.1705 80.75 69.9329 102.77 66.0601" stroke="#113621" stroke-width="3" stroke-miterlimit="10"/>
<path d="M0.910156 296.29C0.910156 296.29 115.77 205.48 252.77 296.29C252.77 296.29 120.49 234.37 0.910156 296.29Z" fill="#113621"/>
<path d="M23.77 298.65C23.77 298.65 118.77 254.31 232.14 298.65C232.18 298.65 122.77 268.42 23.77 298.65Z" fill="#113621"/>
</svg>
