<svg width="56" height="63" viewBox="0 0 56 63" fill="none" xmlns="http://www.w3.org/2000/svg">
<path d="M39.239 41.4011C42.2365 37.2343 44.0793 32.4463 44.6545 27.3925L28 22.6566L11.3453 27.3925C11.9204 32.4462 13.7632 37.2343 16.7608 41.4011C19.6794 45.4579 23.5527 48.7216 28 50.8805C32.4471 48.7216 36.3206 45.4579 39.239 41.4011Z" fill="#55ACEE"/>
<path d="M28 18.7925L44.8496 23.5838V15.8554L28 11.0641L11.1505 15.8554V23.5838L28 18.7925Z" fill="#55ACEE"/>
<path d="M29.8584 0V7.72837L48.5664 13.0482V23.9534C48.5664 31.0495 46.3845 37.8335 42.2563 43.5718C39.0291 48.0574 34.7606 51.6803 29.8584 54.1081V62.2244C37.2609 59.3398 43.6141 54.4137 48.2906 47.913C53.334 40.9023 56 32.6171 56 23.9534V7.43363L29.8584 0Z" fill="#55ACEE"/>
<path d="M26.1416 54.108C21.2394 51.6802 16.9707 48.0573 13.7438 43.5717C9.61565 37.8335 7.43363 31.0495 7.43363 23.9533V13.0481L26.1416 7.72825V0L0 7.43363V23.9533C0 32.617 2.66595 40.9022 7.70941 47.9128C12.386 54.4135 18.7392 59.3397 26.1416 62.2243V54.108Z" fill="#55ACEE"/>
</svg>
