<svg width="56" height="70" viewBox="0 0 56 70" fill="none" xmlns="http://www.w3.org/2000/svg">
<path d="M19.8877 33.3929C19.0877 32.5928 17.7904 32.5928 16.9903 33.3929C16.1902 34.193 16.1902 35.4902 16.9903 36.2903L23.3643 42.6643C23.7644 43.0644 24.2887 43.2645 24.8129 43.2645C25.3372 43.2645 25.8616 43.0645 26.2616 42.6643L39.0095 29.9164C39.8096 29.1163 39.8096 27.8192 39.0095 27.019C38.2095 26.2189 36.9122 26.2189 36.1121 27.019L24.8128 38.3182L19.8877 33.3929Z" fill="#55ACEE"/>
<path d="M53.9389 9.56098C48.0337 9.56098 42.6536 6.31625 39.8985 1.09296C39.5441 0.420683 38.8464 0 38.0864 0H17.9136C17.1536 0 16.4559 0.420683 16.1014 1.09296C13.3464 6.31625 7.96634 9.56098 2.04878 9.56098C0.917307 9.56098 0 10.4783 0 11.6098V32.4733C0 40.8607 2.62066 48.8698 7.57858 55.6349C12.5368 62.4 19.3849 67.3108 27.383 69.8365C27.5838 69.8999 27.7918 69.9316 28 69.9316C28.2082 69.9316 28.4162 69.8999 28.617 69.8365C36.6151 67.3108 43.4632 62.4 48.4214 55.6349C53.3793 48.8698 56 40.8607 56 32.4733V11.6098C56 10.4783 55.0704 9.56098 53.9389 9.56098ZM51.9024 32.4733C51.9024 47.6362 42.3243 60.9186 28 65.7283C13.6757 60.9186 4.09756 47.6362 4.09756 32.4733V13.5557C10.2983 12.9263 15.8436 9.44652 19.1053 4.09756H36.8948C40.1547 9.44379 45.6968 12.9228 51.9024 13.5547V32.4733Z" fill="#55ACEE"/>
<path d="M35.3207 8.94744C34.9316 8.47131 34.349 8.19513 33.7341 8.19513H22.2657C21.6508 8.19513 21.0684 8.47131 20.6794 8.94744C17.7825 12.492 13.9526 15.1212 9.60401 16.5507C8.76332 16.8271 8.19513 17.612 8.19513 18.4971V32.4735C8.19513 45.0205 15.6594 56.2403 27.2115 61.0572C27.4639 61.1624 27.732 61.215 28 61.215C28.268 61.215 28.5362 61.1624 28.7885 61.0572C40.3406 56.2403 47.8049 45.0205 47.8049 32.4735V18.4984C47.8049 17.6135 47.2368 16.8286 46.3961 16.5521C42.0474 15.1221 38.2175 12.4925 35.3207 8.94744ZM43.7073 32.4735C43.7073 43.073 37.5704 52.5803 28 56.9318C18.4296 52.5805 12.2927 43.0732 12.2927 32.4735V19.9385C16.4973 18.3044 20.2361 15.6887 23.2151 12.2927H32.7847C35.7639 15.6892 39.5023 18.3052 43.7073 19.9396V32.4735Z" fill="#55ACEE"/>
</svg>
