<svg width="107" height="53" viewBox="0 0 107 53" fill="none" xmlns="http://www.w3.org/2000/svg">
<path d="M7.99743 28.02L37.7157 3.32052L42.6432 7.44111L17.8401 28.0441H35.562L51.4979 14.7861L67.4298 28.02H85.1516L60.3485 7.41707L65.2885 3.32052L95.0067 28.0063H99L65.2885 0L58.3643 5.75166L51.4979 0.0652436L44.6357 5.7654L37.7115 0.0137382L4 28.02H7.99743ZM78.3349 25.6713H68.6038L53.4987 13.1241L58.3643 9.08592L78.3349 25.6713ZM51.4979 3.38576L56.3676 7.44111L51.4979 11.4656L46.6365 7.44111L51.4979 3.38576ZM49.5013 13.1241L34.3962 25.6713H24.6693L44.6399 9.08592L49.5013 13.1241Z" fill="#55ACEE"/>
<path d="M5.53106 35.4802V48.0442H12.1911V46.0462H8.05106V35.4802H5.53106ZM23.2068 38.0722H20.6688V43.5622C20.6688 45.1642 19.8048 46.0282 18.4368 46.0282C17.1048 46.0282 16.2228 45.1642 16.2228 43.5622V38.0722H13.7028V43.9222C13.7028 46.6582 15.3768 48.1702 17.6988 48.1702C18.9408 48.1702 20.0388 47.6302 20.6688 46.7842V48.0442H23.2068V38.0722ZM31.2012 48.0442H34.0452L30.7332 43.0402L34.0092 38.0722H31.3092L29.4732 41.1502L27.4392 38.0722H24.5952L27.8892 43.0402L24.6312 48.0442H27.3312L29.1492 44.9482L31.2012 48.0442ZM39.6979 39.9802C40.9939 39.9802 42.0379 40.8082 42.0739 42.1222H37.3399C37.5379 40.7542 38.4919 39.9802 39.6979 39.9802ZM44.4319 44.9122H41.7139C41.3899 45.5782 40.7959 46.1182 39.7159 46.1182C38.4559 46.1182 37.4479 45.2902 37.3219 43.8142H44.6119C44.6659 43.4902 44.6839 43.1662 44.6839 42.8422C44.6839 39.8722 42.6499 37.9102 39.7699 37.9102C36.8179 37.9102 34.7659 39.9082 34.7659 43.0582C34.7659 46.1902 36.8719 48.2062 39.7699 48.2062C42.2359 48.2062 43.8919 46.7482 44.4319 44.9122ZM50.8123 35.4802V48.0442H57.4723V46.0462H53.3323V35.4802H50.8123ZM59.074 48.0442H61.594V38.0722H59.074V48.0442ZM60.352 36.8842C61.234 36.8842 61.9 36.2362 61.9 35.4082C61.9 34.5802 61.234 33.9322 60.352 33.9322C59.452 33.9322 58.804 34.5802 58.804 35.4082C58.804 36.2362 59.452 36.8842 60.352 36.8842ZM63.0218 38.0722L66.6938 48.0442H69.7538L73.4438 38.0722H70.7618L68.2418 45.7222L65.7218 38.0722H63.0218ZM74.8592 48.0442H77.3792V38.0722H74.8592V48.0442ZM76.1372 36.8842C77.0192 36.8842 77.6852 36.2362 77.6852 35.4082C77.6852 34.5802 77.0192 33.9322 76.1372 33.9322C75.2372 33.9322 74.5892 34.5802 74.5892 35.4082C74.5892 36.2362 75.2372 36.8842 76.1372 36.8842ZM86.853 48.0442H89.373V42.1942C89.373 39.4402 87.717 37.9282 85.395 37.9282C84.117 37.9282 83.037 38.4682 82.389 39.3142V38.0722H79.869V48.0442H82.389V42.5362C82.389 40.9342 83.271 40.0702 84.639 40.0702C85.971 40.0702 86.853 40.9342 86.853 42.5362V48.0442ZM91.1213 43.0222C91.1213 46.1362 93.1373 48.2062 95.6753 48.2062C97.2413 48.2062 98.3753 47.4322 98.9693 46.5682V48.1162C98.9693 49.9702 97.8893 50.7622 96.5033 50.7622C95.2433 50.7622 94.3073 50.1682 94.0553 49.2682H91.5533C91.8053 51.5542 93.7673 52.9582 96.5753 52.9582C99.8513 52.9582 101.507 50.8162 101.507 48.1162V38.0722H98.9693V39.4942C98.3753 38.6302 97.2413 37.9102 95.6753 37.9102C93.1373 37.9102 91.1213 39.9082 91.1213 43.0222ZM98.9693 43.0582C98.9693 44.9482 97.7093 45.9922 96.3233 45.9922C94.9733 45.9922 93.6953 44.9122 93.6953 43.0222C93.6953 41.1322 94.9733 40.1242 96.3233 40.1242C97.7093 40.1242 98.9693 41.1682 98.9693 43.0582Z" fill="#55ACEE"/>
</svg>
