<svg width="13" height="14" viewBox="0 0 13 14" fill="none" xmlns="http://www.w3.org/2000/svg">
<path d="M6.35016 14C5.65561 13.6172 5.02721 13.2116 4.46496 12.7832C3.9027 12.3548 3.41073 11.9447 2.98904 11.5527C2.56735 11.1608 2.19734 10.696 1.879 10.1582C1.56067 9.62044 1.29608 9.15332 1.08523 8.75684C0.874388 8.36035 0.698683 7.83854 0.55812 7.19141C0.417556 6.54427 0.310067 6.01335 0.235651 5.59863C0.161235 5.18392 0.105423 4.58919 0.0682146 3.81445C0.0310067 3.03971 0.0103356 2.43359 0.00620133 1.99609C0.00206711 1.55859 0 0.893229 0 0C0 0.236979 0.310067 0.442057 0.9302 0.615234C1.55033 0.788411 2.29863 0.875 3.17508 0.875C4.05154 0.875 4.79983 0.788411 5.41996 0.615234C6.0401 0.442057 6.35016 0.236979 6.35016 0C6.35016 0.236979 6.66023 0.442057 7.28036 0.615234C7.9005 0.788411 8.64879 0.875 9.52524 0.875C10.4017 0.875 11.15 0.788411 11.7701 0.615234C12.3903 0.442057 12.7003 0.236979 12.7003 0C12.7003 0.893229 12.6983 1.55859 12.6941 1.99609C12.69 2.43359 12.6693 3.03971 12.6321 3.81445C12.5949 4.58919 12.5391 5.18392 12.4647 5.59863C12.3903 6.01335 12.2828 6.54427 12.1422 7.19141C12.0016 7.83854 11.8259 8.36035 11.6151 8.75684C11.4042 9.15332 11.1397 9.62044 10.8213 10.1582C10.503 10.696 10.133 11.1608 9.71128 11.5527C9.28959 11.9447 8.79762 12.3548 8.23537 12.7832C7.67311 13.2116 7.04471 13.6172 6.35016 14ZM6.35016 1.75C6.35016 1.98698 6.11658 2.19206 5.64941 2.36523C5.18225 2.53841 4.62206 2.625 3.96885 2.625C3.52236 2.625 3.07999 2.58398 2.64177 2.50195C2.20354 2.41992 1.85213 2.31055 1.58754 2.17383C1.58754 2.89388 1.59581 3.47266 1.61235 3.91016C1.62888 4.34766 1.66816 4.86947 1.73017 5.47559C1.79218 6.08171 1.8852 6.58073 2.00923 6.97266C2.13326 7.36458 2.31103 7.80664 2.54255 8.29883C2.77406 8.79102 3.05726 9.2194 3.39213 9.58398C3.727 9.94857 4.14249 10.3268 4.6386 10.7188C5.1347 11.1107 5.70522 11.4753 6.35016 11.8125V1.75Z" fill="black"/>
</svg>
