<svg width="10" height="13" viewBox="0 0 10 13" fill="none" xmlns="http://www.w3.org/2000/svg">
<path d="M9.8139 6.99965C9.81513 7.69583 9.68682 8.3849 9.43689 9.02425C9.18696 9.66361 8.82072 10.2397 8.36082 10.7168C7.90093 11.1939 7.35713 11.562 6.76306 11.7983C6.169 12.0346 5.53727 12.1341 4.90695 12.0906C4.27663 12.1341 3.64491 12.0346 3.05084 11.7983C2.45677 11.562 1.91298 11.1939 1.45308 10.7168C0.99318 10.2397 0.626946 9.66361 0.377017 9.02425C0.127087 8.3849 -0.00122596 7.69583 8.82797e-06 6.99965C0.925867 6.92466 1.85074 7.159 2.65397 7.6721C3.4572 8.18519 4.10151 8.95323 4.50285 9.87601V5.72692H2.1937C2.05876 5.7286 1.92483 5.70096 1.79958 5.64559C1.67432 5.59021 1.56019 5.50818 1.4637 5.40417C1.36721 5.30017 1.29024 5.17623 1.2372 5.03944C1.18417 4.90265 1.15609 4.75567 1.15458 4.60692V1.7051C1.15094 1.60818 1.1761 1.5126 1.22623 1.43288C1.27637 1.35316 1.34874 1.29366 1.43235 1.26341C1.51596 1.23317 1.60625 1.23384 1.68948 1.26532C1.77272 1.2968 1.84436 1.35737 1.89351 1.43783L3.20973 3.18147L4.56058 0.21601C4.5965 0.15012 4.64728 0.0955975 4.70797 0.0577454C4.76867 0.0198934 4.83722 0 4.90695 0C4.97669 0 5.04524 0.0198934 5.10593 0.0577454C5.16663 0.0955975 5.21741 0.15012 5.25333 0.21601L6.60418 3.18147L7.90885 1.4251C7.95549 1.33791 8.02769 1.27082 8.11354 1.2349C8.19939 1.19898 8.29379 1.19637 8.38117 1.22749C8.46855 1.25861 8.54371 1.32161 8.59427 1.40611C8.64483 1.49061 8.66777 1.59158 8.65932 1.69237V4.59419C8.65932 4.89461 8.55106 5.18272 8.35835 5.39515C8.16564 5.60758 7.90428 5.72692 7.63175 5.72692H5.31105V9.87601C5.71239 8.95323 6.3567 8.18519 7.15994 7.6721C7.96317 7.159 8.88804 6.92466 9.8139 6.99965Z" fill="black"/>
</svg>
