<svg width="13" height="14" viewBox="0 0 13 14" fill="none" xmlns="http://www.w3.org/2000/svg">
<path d="M9.33796 0.875H3.36236C2.19516 0.87492 1.044 0.575349 0 0L0 2.625C0 3.10816 0.35546 3.5 0.79377 3.5H1.58754V5.25H0.396885C0.177606 5.25 0 5.44578 0 5.6875V6.5625C0 6.80422 0.177606 7 0.396885 7H1.58754V13.5625C1.58754 13.8042 1.76515 14 1.98443 14H2.7782C2.99748 14 3.17508 13.8042 3.17508 13.5625V7H9.52524V13.5625C9.52524 13.8042 9.70285 14 9.92213 14H10.7159C10.9352 14 11.1128 13.8042 11.1128 13.5625V7H12.3034C12.5227 7 12.7003 6.80422 12.7003 6.5625V5.6875C12.7003 5.44578 12.5227 5.25 12.3034 5.25H11.1128V3.5H11.9066C12.3449 3.5 12.7003 3.10816 12.7003 2.625V0C11.6563 0.575349 10.5052 0.87492 9.33796 0.875ZM3.17508 3.5H5.55639V5.25H3.17508V3.5ZM9.52524 5.25H7.14393V3.5H9.52524V5.25Z" fill="black"/>
</svg>
