<svg width="11" height="11" viewBox="0 0 11 11" fill="none" xmlns="http://www.w3.org/2000/svg">
<path d="M10.5836 10.5001C9.99621 10.5001 9.66812 10.2843 9.42999 10.1268C9.23419 9.99843 9.11248 9.91676 8.82143 9.91676C8.52509 9.91676 8.40867 9.99259 8.21288 10.1268C7.96945 10.2843 7.64665 10.5001 7.05926 10.5001C6.47187 10.5001 6.14378 10.2843 5.90565 10.1268C5.70985 9.99843 5.58814 9.91676 5.29709 9.91676C5.00075 9.91676 4.88433 9.99259 4.68854 10.1268C4.44511 10.2843 4.11702 10.5001 3.52963 10.5001C2.94224 10.5001 2.61415 10.2843 2.37602 10.1268C2.18022 9.99259 2.05851 9.91676 1.76746 9.91676C1.47641 9.91676 1.3547 9.99259 1.1589 10.1268C0.915482 10.2843 0.58739 10.5001 0 10.5001V9.33343C0.296341 9.33343 0.412761 9.25759 0.608557 9.12343C0.85198 8.96593 1.18007 8.75009 1.76746 8.75009C2.35485 8.75009 2.68294 8.96593 2.92107 9.12343C3.11687 9.25759 3.23329 9.33343 3.52963 9.33343C3.82597 9.33343 3.94239 9.25759 4.13819 9.12343C4.38161 8.96593 4.7097 8.75009 5.29709 8.75009C5.88448 8.75009 6.21258 8.96593 6.45071 9.12343C6.6465 9.25176 6.76822 9.33343 7.05926 9.33343C7.35031 9.33343 7.47202 9.25759 7.66782 9.12343C7.90595 8.96593 8.23404 8.75009 8.82143 8.75009C9.40882 8.75009 9.73692 8.96593 9.97505 9.12343C10.1708 9.25759 10.2873 9.33343 10.5836 9.33343V10.5001ZM10.5836 7.87509C9.99621 7.87509 9.66812 7.65926 9.42999 7.50176C9.23419 7.37343 9.11248 7.29176 8.82143 7.29176C8.52509 7.29176 8.40867 7.36759 8.21288 7.50176C7.97475 7.65926 7.64665 7.87509 7.05926 7.87509C6.47187 7.87509 6.14378 7.65926 5.90565 7.50176C5.70985 7.37343 5.58814 7.29176 5.29709 7.29176C5.00075 7.29176 4.88433 7.36759 4.68854 7.50176C4.45041 7.65926 4.12231 7.87509 3.53492 7.87509C2.94753 7.87509 2.61944 7.65926 2.38131 7.50176C2.18551 7.37343 2.0638 7.29176 1.77275 7.29176C1.4817 7.29176 1.35999 7.36759 1.1642 7.50176C0.915482 7.65926 0.58739 7.87509 0 7.87509V6.70843C0.296341 6.70843 0.412761 6.63259 0.608557 6.49843C0.846688 6.34093 1.17478 6.12509 1.76217 6.12509C2.34956 6.12509 2.67765 6.34093 2.91578 6.49843C3.11158 6.62676 3.23329 6.70843 3.52434 6.70843C3.82068 6.70843 3.9371 6.63259 4.1329 6.49843C4.37103 6.34093 4.69912 6.12509 5.28651 6.12509C5.8739 6.12509 6.20199 6.34093 6.44012 6.49843C6.63592 6.62676 6.75763 6.70843 7.04868 6.70843C7.33973 6.70843 7.46144 6.63259 7.65724 6.49843C7.89537 6.34093 8.22346 6.12509 8.81085 6.12509C9.39824 6.12509 9.72633 6.34093 9.96446 6.49843C10.1603 6.62676 10.282 6.70843 10.573 6.70843V7.87509H10.5836ZM3.52963 5.25009C3.82597 5.25009 3.94239 5.17426 4.13819 5.04009C4.38161 4.88259 4.7097 4.66676 5.29709 4.66676C5.88448 4.66676 6.21258 4.88259 6.45071 5.04009C6.6465 5.16843 6.76822 5.25009 7.05926 5.25009C7.35031 5.25009 7.47202 5.17426 7.66782 5.04009C7.73132 4.99926 7.80541 4.95259 7.88479 4.90593L4.48745 1.16676C3.66722 0.262593 2.91049 -0.00574068 1.58754 9.26542e-05V1.45843C2.55065 1.45259 3.11687 1.68593 3.70426 2.33343L4.23344 2.91676L2.51361 4.81259C2.67765 4.88259 2.80995 4.97009 2.92107 5.04009C3.11687 5.17426 3.23329 5.25009 3.52963 5.25009Z" fill="black"/>
</svg>
